<svg width="30" height="30" viewBox="0 0 30 30" fill="none" xmlns="http://www.w3.org/2000/svg">
<circle cx="15" cy="15" r="15" fill="url(#paint0_linear_59_757)"/>
<circle cx="15" cy="15" r="15" fill="url(#paint1_linear_59_757)"/>
<path fill-rule="evenodd" clip-rule="evenodd" d="M17.2457 9.45874C17.6138 9.45874 17.9813 9.51066 18.3307 9.62791C20.4838 10.3279 21.2596 12.6904 20.6115 14.7554C20.244 15.8107 19.6432 16.7737 18.8563 17.5607C17.7298 18.6515 16.4938 19.6198 15.1632 20.454L15.0173 20.5421L14.8657 20.4482C13.5304 19.6198 12.2873 18.6515 11.1504 17.5548C10.3688 16.7679 9.76735 15.8107 9.39401 14.7554C8.73485 12.6904 9.51068 10.3279 11.6871 9.61566C11.8563 9.55733 12.0307 9.51649 12.2057 9.49374H12.2757C12.4396 9.46983 12.6023 9.45874 12.7657 9.45874H12.8298C13.1973 9.46983 13.5532 9.53399 13.8979 9.65124H13.9323C13.9557 9.66233 13.9732 9.67458 13.9848 9.68566C14.1138 9.72708 14.2357 9.77374 14.3523 9.83791L14.574 9.93708C14.6276 9.96564 14.6877 10.0093 14.7397 10.047C14.7726 10.0709 14.8022 10.0924 14.8248 10.1062C14.8344 10.1119 14.844 10.1175 14.8538 10.1232C14.9038 10.1524 14.9559 10.1828 14.9998 10.2165C15.6479 9.72124 16.4348 9.45291 17.2457 9.45874ZM18.7973 13.6587C19.0365 13.6523 19.2407 13.4604 19.2582 13.2148V13.1454C19.2757 12.3282 18.7804 11.5879 18.0273 11.3021C17.7882 11.2198 17.5257 11.3487 17.4382 11.5937C17.3565 11.8387 17.4848 12.1071 17.7298 12.194C18.1038 12.334 18.354 12.7021 18.354 13.1098V13.1279C18.3429 13.2615 18.3832 13.3904 18.4648 13.4896C18.5465 13.5887 18.669 13.6465 18.7973 13.6587Z" fill="#0F0F11"/>
<defs>
<linearGradient id="paint0_linear_59_757" x1="15" y1="0" x2="15" y2="30" gradientUnits="userSpaceOnUse">
<stop stop-color="#DB76FF"/>
<stop offset="1" stop-color="#16CAF1"/>
</linearGradient>
<linearGradient id="paint1_linear_59_757" x1="15" y1="0" x2="15" y2="30" gradientUnits="userSpaceOnUse">
<stop stop-color="#DB76FF"/>
<stop offset="1" stop-color="#16CAF1"/>
</linearGradient>
</defs>
</svg>
