<svg width="32" height="32" viewBox="0 0 32 32" fill="none" xmlns="http://www.w3.org/2000/svg">
<circle cx="16" cy="16" r="15.5" fill="#0F0F11" stroke="url(#paint0_linear_52_346)"/>
<circle cx="16" cy="16" r="15" fill="#0F0F11"/>
<path fill-rule="evenodd" clip-rule="evenodd" d="M18.2457 10.4587C18.6138 10.4587 18.9813 10.5107 19.3307 10.6279C21.4838 11.3279 22.2596 13.6904 21.6115 15.7554C21.244 16.8107 20.6432 17.7737 19.8563 18.5607C18.7298 19.6515 17.4938 20.6198 16.1632 21.454L16.0173 21.5421L15.8657 21.4482C14.5304 20.6198 13.2873 19.6515 12.1504 18.5548C11.3688 17.7679 10.7673 16.8107 10.394 15.7554C9.73485 13.6904 10.5107 11.3279 12.6871 10.6157C12.8563 10.5573 13.0307 10.5165 13.2057 10.4937H13.2757C13.4396 10.4698 13.6023 10.4587 13.7657 10.4587H13.8298C14.1973 10.4698 14.5532 10.534 14.8979 10.6512H14.9323C14.9557 10.6623 14.9732 10.6746 14.9848 10.6857C15.1138 10.7271 15.2357 10.7737 15.3523 10.8379L15.574 10.9371C15.6276 10.9656 15.6877 11.0093 15.7397 11.047C15.7726 11.0709 15.8022 11.0924 15.8248 11.1062C15.8344 11.1119 15.844 11.1175 15.8538 11.1232C15.9038 11.1524 15.9559 11.1828 15.9998 11.2165C16.6479 10.7212 17.4348 10.4529 18.2457 10.4587ZM19.7973 14.6587C20.0365 14.6523 20.2407 14.4604 20.2582 14.2148V14.1454C20.2757 13.3282 19.7804 12.5879 19.0273 12.3021C18.7882 12.2198 18.5257 12.3487 18.4382 12.5937C18.3565 12.8387 18.4848 13.1071 18.7298 13.194C19.1038 13.334 19.354 13.7021 19.354 14.1098V14.1279C19.3429 14.2615 19.3832 14.3904 19.4648 14.4896C19.5465 14.5887 19.669 14.6465 19.7973 14.6587Z" fill="url(#paint1_linear_52_346)"/>
<defs>
<linearGradient id="paint0_linear_52_346" x1="17.5" y1="31" x2="17" y2="2" gradientUnits="userSpaceOnUse">
<stop stop-color="#19A1BE"/>
<stop offset="0.4375" stop-opacity="0"/>
</linearGradient>
<linearGradient id="paint1_linear_52_346" x1="15.9999" y1="10.4586" x2="15.9999" y2="21.5421" gradientUnits="userSpaceOnUse">
<stop stop-color="#DB76FF"/>
<stop offset="1" stop-color="#16CAF1"/>
</linearGradient>
</defs>
</svg>
